# xmcd CD database file
#
# Track frame offsets:
#	150
#	17720
#	34407
#	54230
#	77942
#	94570
#	112450
#	129952
#	147510
#	167820
#	187885
#	200995
#	216662
#	231882
#	255550
#	274302
#
# Disc length: 3937 seconds
#
# Revision: 2
# Processed by: cddbd v1.5.2PL0 Copyright (c) Steve Scherf et al.
# Submitted via: CD2WAV32(JP) R3.22
#
DISCID=f60f5f10
DTITLE=pop'n music - pop'n music Inst Best DISC2
DYEAR=2001
DGENRE=Game
TTITLE0=恋のシャレード
TTITLE1=透明なマニキュア
TTITLE2=Love Is Strong To The Sky
TTITLE3=Candy Blue
TTITLE4=水中家族のテーマ
TTITLE5=恋は天然
TTITLE6=Miracle Moon(お月様が中継局)
TTITLE7=ウォーネイヤヘイチュウ
TTITLE8=Cry Out
TTITLE9=HONEまで トゥナイト!REMIX
TTITLE10=une fille dans la pluie
TTITLE11=時代を変えてくTeenage
TTITLE12=なんか変だ!
TTITLE13=peppermint
TTITLE14=どうなっちゃったって
TTITLE15=光の季節
EXTD=
EXTT0=
EXTT1=
EXTT2=
EXTT3=
EXTT4=
EXTT5=
EXTT6=
EXTT7=
EXTT8=
EXTT9=
EXTT10=
EXTT11=
EXTT12=
EXTT13=
EXTT14=
EXTT15=
PLAYORDER=
